<svg width="23" height="24" viewBox="0 0 23 24" fill="none" xmlns="http://www.w3.org/2000/svg">
<path d="M19.7994 12.6635C19.8427 12.3029 19.8715 11.9279 19.8715 11.5385C19.8715 11.149 19.8427 10.774 19.785 10.4135L22.2225 8.50962C22.4388 8.33655 22.4965 8.01924 22.3667 7.77405L20.059 3.77885C19.9148 3.51924 19.6119 3.4327 19.3523 3.51924L16.4821 4.67308C15.8763 4.21155 15.2417 3.83655 14.535 3.54808L14.1023 0.490392C14.059 0.201931 13.8138 7.62939e-06 13.5254 7.62939e-06H8.90999C8.62153 7.62939e-06 8.39076 0.201931 8.34749 0.490392L7.9148 3.54808C7.20807 3.83655 6.55903 4.22597 5.96769 4.67308L3.09749 3.51924C2.83788 3.41828 2.53499 3.51924 2.39076 3.77885L0.0830702 7.77405C-0.0611606 8.03366 -0.00346804 8.33655 0.227301 8.50962L2.6648 10.4135C2.60711 10.774 2.56384 11.1635 2.56384 11.5385C2.56384 11.9135 2.59269 12.3029 2.65038 12.6635L0.212878 14.5673C-0.00346839 14.7404 -0.0611605 15.0577 0.0686471 15.3029L2.37634 19.2981C2.52057 19.5577 2.82345 19.6442 3.08307 19.5577L5.95326 18.4039C6.55903 18.8654 7.19365 19.2404 7.90038 19.5289L8.33307 22.5865C8.39076 22.875 8.62153 23.0769 8.90999 23.0769H13.5254C13.8138 23.0769 14.059 22.875 14.0879 22.5865L14.5206 19.5289C15.2273 19.2404 15.8763 18.851 16.4677 18.4039L19.3379 19.5577C19.5975 19.6587 19.9004 19.5577 20.0446 19.2981L22.3523 15.3029C22.4965 15.0433 22.4388 14.7404 22.2081 14.5673L19.7994 12.6635ZM11.2177 15.8654C8.83788 15.8654 6.89076 13.9183 6.89076 11.5385C6.89076 9.15866 8.83788 7.21155 11.2177 7.21155C13.5975 7.21155 15.5446 9.15866 15.5446 11.5385C15.5446 13.9183 13.5975 15.8654 11.2177 15.8654Z" fill="black"/>
</svg>
