<svg width="34" height="34" viewBox="0 0 34 34" fill="none" xmlns="http://www.w3.org/2000/svg">
<path d="M25.6475 17.1C25.6475 13.855 23.7775 11.0683 21.0641 9.71167V13.7633L25.5558 18.255C25.6108 17.8883 25.6475 17.5033 25.6475 17.1V17.1ZM30.2308 17.1C30.2308 18.8233 29.8641 20.4367 29.2408 21.94L32.0091 24.7083C33.2191 22.435 33.8975 19.85 33.8975 17.1C33.8975 9.25334 28.4158 2.69001 21.0641 1.02167V4.79834C26.3625 6.37501 30.2308 11.2883 30.2308 17.1ZM3.22579 0.600006L0.897461 2.92834L9.56913 11.6H0.897461V22.6H8.23079L17.3975 31.7667V19.4283L25.1891 27.22C23.9608 28.1733 22.5858 28.925 21.0641 29.3833V33.16C23.5941 32.5917 25.8858 31.4183 27.8291 29.8417L31.5691 33.6L33.8975 31.2717L17.3975 14.7717L3.22579 0.600006ZM17.3975 2.43334L13.5658 6.26501L17.3975 10.0967V2.43334Z" fill="white"/>
</svg>
